<svg class="svgicon" id="svg35" preserveAspectRatio="xMidYMid meet" xmlns="http://www.w3.org/2000/svg" viewBox="0 0 128 128">
    <rect x="0" y="0" width="128" height="128" style="fill: rgba(255, 217, 64, 0.15)" rx="50%" ry="50%"></rect>
    <g transform="scale(0.75) translate(21.333333333333332, 21.333333333333332)">
        <path d="M98.127,41.146H81.191c-3.768,0-6.832-3.065-6.832-6.832V18.312l-0.467-0.448h-39.37c-2.829,0-5.126,2.296-5.126,5.127 v82.021c0,2.831,2.297,5.126,5.126,5.126h58.955c2.831,0,5.126-2.295,5.126-5.126V41.603L98.127,41.146z M64.908,48.782 c0-0.811,0.705-1.466,1.577-1.466h7.664c0.872,0,1.577,0.655,1.577,1.466v7.691c0,0.808-0.705,1.463-1.577,1.463h-7.664 c-0.872,0-1.577-0.655-1.577-1.463V48.782z M48.953,95.92c0,0.807-0.707,1.463-1.577,1.463h-7.665 c-0.872,0-1.578-0.656-1.578-1.463v-7.691c0-0.811,0.706-1.466,1.578-1.466h7.665c0.87,0,1.577,0.655,1.577,1.466V95.92z M48.953,82.854c0,0.81-0.707,1.464-1.577,1.464h-7.665c-0.872,0-1.578-0.654-1.578-1.464v-7.691c0-0.811,0.706-1.466,1.578-1.466 h7.665c0.87,0,1.577,0.655,1.577,1.466V82.854z M48.953,69.537c0,0.81-0.707,1.464-1.577,1.464h-7.665 c-0.872,0-1.578-0.654-1.578-1.464v-7.69c0-0.811,0.706-1.466,1.578-1.466h7.665c0.87,0,1.577,0.655,1.577,1.466V69.537z M48.953,56.473c0,0.808-0.707,1.463-1.577,1.463h-7.665c-0.872,0-1.578-0.655-1.578-1.463v-7.691c0-0.811,0.706-1.466,1.578-1.466 h7.665c0.87,0,1.577,0.655,1.577,1.466V56.473z M62.205,95.92c0,0.807-0.707,1.463-1.578,1.463h-7.664 c-0.873,0-1.577-0.656-1.577-1.463v-7.691c0-0.811,0.704-1.466,1.577-1.466h7.664c0.871,0,1.578,0.655,1.578,1.466V95.92z M62.205,82.854c0,0.81-0.707,1.464-1.578,1.464h-7.664c-0.873,0-1.577-0.654-1.577-1.464v-7.691c0-0.811,0.704-1.466,1.577-1.466 h7.664c0.871,0,1.578,0.655,1.578,1.466V82.854z M62.205,69.537c0,0.81-0.707,1.464-1.578,1.464h-7.664 c-0.873,0-1.577-0.654-1.577-1.464v-7.69c0-0.811,0.704-1.466,1.577-1.466h7.664c0.871,0,1.578,0.655,1.578,1.466V69.537z M62.205,56.473c0,0.808-0.707,1.463-1.578,1.463h-7.664c-0.873,0-1.577-0.655-1.577-1.463v-7.691c0-0.811,0.704-1.466,1.577-1.466 h7.664c0.871,0,1.578,0.655,1.578,1.466V56.473z M64.908,61.847c0-0.811,0.705-1.466,1.577-1.466h7.664 c0.872,0,1.577,0.655,1.577,1.466v7.69c0,0.81-0.705,1.464-1.577,1.464h-7.664c-0.872,0-1.577-0.654-1.577-1.464V61.847z M89.032,76.355v20.96h-0.006v0.082H65.088v-0.082h-0.003V86.399c0-0.004-0.001-0.006-0.001-0.009c0-0.004,0.001-0.004,0.001-0.007 v-0.015h0.003c0.012-1.089,0.959-1.967,2.135-1.967h2.361c1.173,0,2.122,0.878,2.137,1.967h0.001v9.774h2.021V81.561h0.009 c0.03-1.07,0.97-1.93,2.132-1.93h2.361c1.159,0,2.1,0.859,2.132,1.93h0.002v0.023c0,0.01,0.001,0.022,0.001,0.029 c0,0.017-0.001,0.025-0.001,0.035v14.495h2.019V76.274h0.007c0.038-1.063,0.975-1.917,2.129-1.917h2.364 c1.156,0,2.09,0.854,2.13,1.917h0.006v0.055c0,0.004,0.001,0.01,0.001,0.015C89.033,76.347,89.032,76.352,89.032,76.355z M89.115,69.537c0,0.81-0.706,1.464-1.577,1.464h-7.665c-0.872,0-1.577-0.654-1.577-1.464v-7.69c0-0.811,0.705-1.466,1.577-1.466 h7.665c0.871,0,1.577,0.655,1.577,1.466V69.537z M89.115,56.473c0,0.808-0.706,1.463-1.577,1.463h-7.665 c-0.872,0-1.577-0.655-1.577-1.463v-7.691c0-0.811,0.705-1.466,1.577-1.466h7.665c0.871,0,1.577,0.655,1.577,1.466V56.473z" style="fill: rgb(255, 217, 64)"></path>
        <path d="M81.191,37.546H94.38h1.567L77.959,20.265v1.505v12.543C77.959,36.097,79.409,37.546,81.191,37.546z" style="fill: rgb(255, 217, 64)"></path>
    </g>
</svg>