<svg class="svgicon" id="svg141" preserveAspectRatio="xMidYMid meet" xmlns="http://www.w3.org/2000/svg" viewBox="0 0 128 128">
    <rect x="0" y="0" width="128" height="128" style="fill: transparent" rx="50%" ry="50%"></rect>
    <g transform="scale(0.6) translate(42.66666666666667, 42.66666666666667)">
        <path d="M114.12,33.007v-6.091c0-3.33-2.699-6.029-6.03-6.029H19.133c-3.333,0-6.032,2.699-6.032,6.029v59.557 c0,3.333,2.699,6.032,6.032,6.032c0,0,0.057,0.007,0.168,0.021c0.001,0,0.002,0,0.002,0.001c0.053,0.007,0.118,0.016,0.193,0.024 c0.08,0.01,0.172,0.021,0.278,0.035c0.043,0.005,0.094,0.011,0.141,0.018c0.096,0.012,0.201,0.024,0.313,0.038 c0.075,0.01,0.155,0.02,0.236,0.029c0.095,0.012,0.197,0.024,0.3,0.037c0.101,0.012,0.198,0.024,0.307,0.037 c0.034,0.005,0.075,0.009,0.111,0.014c0.292,0.035,0.614,0.073,0.961,0.116c0.077,0.009,0.153,0.019,0.233,0.027 c0.16,0.019,0.328,0.039,0.5,0.06c0.09,0.011,0.185,0.021,0.276,0.032c0.642,0.076,1.346,0.157,2.11,0.245 c0.074,0.008,0.148,0.017,0.224,0.025c0.259,0.029,0.523,0.06,0.795,0.09c0.031,0.004,0.062,0.007,0.094,0.011 c0.899,0.101,1.862,0.208,2.879,0.318c0.035,0.003,0.07,0.007,0.105,0.011c1.395,0.15,2.888,0.308,4.453,0.466 c0.018,0.001,0.036,0.003,0.054,0.005c1.581,0.159,3.233,0.319,4.929,0.476c0.01,0.001,0.02,0.002,0.03,0.002 c1.252,0.115,2.526,0.229,3.812,0.336c0.039,0.003,0.077,0.007,0.114,0.01c0.418,0.034,0.836,0.069,1.256,0.104 c0.032,0.002,0.064,0.005,0.097,0.008c1.244,0.1,2.495,0.195,3.741,0.284c0.089,0.007,0.179,0.013,0.267,0.019 c0.59,0.041,1.178,0.082,1.763,0.119c0.026,0.002,0.053,0.004,0.079,0.006c0.601,0.039,1.199,0.075,1.794,0.11 c0.032,0.002,0.065,0.005,0.1,0.007c0.571,0.033,1.14,0.064,1.705,0.094c0.059,0.004,0.118,0.006,0.178,0.01 c0.531,0.027,1.057,0.052,1.579,0.075c0.089,0.004,0.179,0.009,0.268,0.013c0.42,0.019,0.831,0.033,1.243,0.049 c-0.295,0.733-0.593,1.536-0.904,2.436c-7.16,0.694-12.187,2.319-12.187,4.216c0,2.527,8.927,4.577,19.938,4.577 c11.009,0,19.937-2.05,19.937-4.577c0-1.896-5.026-3.52-12.184-4.216c-0.317-0.923-0.615-1.739-0.904-2.477 c18.702-0.681,37.572-3.339,37.572-3.339c3.331,0,6.03-2.699,6.03-6.032V48.276c0.456-0.18,0.779-0.62,0.779-1.139V34.146 C114.899,33.629,114.576,33.188,114.12,33.007z M104.597,84.369H22.41V29.48h82.187V84.369z"></path>
    </g>
</svg>