<svg class="svgicon" id="svg37" preserveAspectRatio="xMidYMid meet" xmlns="http://www.w3.org/2000/svg" viewBox="0 0 128 128">
    <rect x="0" y="0" width="128" height="128" style="fill: rgba(255, 217, 64, 0.15)" rx="50%" ry="50%"></rect>
    <g transform="scale(0.75) translate(21.333333333333332, 21.333333333333332)">
        <rect x="36.833" y="29.493" class="st0" width="55" height="15.417" style="fill: rgb(255, 217, 64)"></rect>
        <path class="st0" d="M103.669,14.743H24.331c-1.658,0-3,1.343-3,3v92.515c0,1.657,1.342,3,3,3h79.338c1.656,0,3-1.343,3-3V17.743 C106.669,16.085,105.325,14.743,103.669,14.743z M40.333,88.54h-6c-1.381,0-2.5-1.119-2.5-2.5s1.119-2.5,2.5-2.5h6 c1.381,0,2.5,1.119,2.5,2.5S41.714,88.54,40.333,88.54z M40.333,74.691h-6c-1.381,0-2.5-1.119-2.5-2.5s1.119-2.5,2.5-2.5h6 c1.381,0,2.5,1.119,2.5,2.5S41.714,74.691,40.333,74.691z M40.333,62.243h-6c-1.381,0-2.5-1.119-2.5-2.5s1.119-2.5,2.5-2.5h6 c1.381,0,2.5,1.119,2.5,2.5S41.714,62.243,40.333,62.243z M49.933,69.691h9.6c1.381,0,2.5,1.119,2.5,2.5s-1.119,2.5-2.5,2.5h-9.6 c-1.381,0-2.5-1.119-2.5-2.5S48.552,69.691,49.933,69.691z M47.433,59.743c0-1.381,1.119-2.5,2.5-2.5h9.6 c1.381,0,2.5,1.119,2.5,2.5s-1.119,2.5-2.5,2.5h-9.6C48.552,62.243,47.433,61.124,47.433,59.743z M59.532,88.54h-9.6 c-1.381,0-2.5-1.119-2.5-2.5s1.119-2.5,2.5-2.5h9.6c1.381,0,2.5,1.119,2.5,2.5S60.913,88.54,59.532,88.54z M69.132,69.691h9.6 c1.381,0,2.5,1.119,2.5,2.5s-1.119,2.5-2.5,2.5h-9.6c-1.381,0-2.5-1.119-2.5-2.5S67.751,69.691,69.132,69.691z M66.632,59.743 c0-1.381,1.119-2.5,2.5-2.5h9.6c1.381,0,2.5,1.119,2.5,2.5s-1.119,2.5-2.5,2.5h-9.6C67.751,62.243,66.632,61.124,66.632,59.743z M78.733,88.54h-9.6c-1.381,0-2.5-1.119-2.5-2.5s1.119-2.5,2.5-2.5h9.6c1.381,0,2.5,1.119,2.5,2.5S80.114,88.54,78.733,88.54z M94.333,88.54h-6c-1.381,0-2.5-1.119-2.5-2.5s1.119-2.5,2.5-2.5h6c1.381,0,2.5,1.119,2.5,2.5S95.714,88.54,94.333,88.54z M94.333,74.691h-6c-1.381,0-2.5-1.119-2.5-2.5s1.119-2.5,2.5-2.5h6c1.381,0,2.5,1.119,2.5,2.5S95.714,74.691,94.333,74.691z M94.333,62.243h-6c-1.381,0-2.5-1.119-2.5-2.5s1.119-2.5,2.5-2.5h6c1.381,0,2.5,1.119,2.5,2.5S95.714,62.243,94.333,62.243z M96.833,47.41c0,1.381-1.119,2.5-2.5,2.5h-60c-1.381,0-2.5-1.119-2.5-2.5V26.993c0-1.381,1.119-2.5,2.5-2.5h60 c1.381,0,2.5,1.119,2.5,2.5V47.41z" style="fill: rgb(255, 217, 64)"></path>
    </g>
</svg>