<svg class="svgicon" id="svg36" preserveAspectRatio="xMidYMid meet" xmlns="http://www.w3.org/2000/svg" viewBox="0 0 128 128">
    <rect x="0" y="0" width="128" height="128" style="fill: rgba(255, 217, 64, 0.15)" rx="50%" ry="50%"></rect>
    <g transform="scale(0.75) translate(21.333333333333332, 21.333333333333332)">
        <path class="st0" d="M95.069,51.213c0.715,0,1.406-0.256,1.951-0.721l13.328-11.41c0.67-0.573,1.055-1.413,1.049-2.295 c-0.004-0.882-0.396-1.717-1.074-2.284l-13.328-11.16c-0.541-0.452-1.223-0.7-1.926-0.7H67.858v-4.85c0-1.657-1.342-3-3-3 c-1.656,0-3,1.343-3,3v4.85h-28.93c-1.656,0-3,1.343-3,3v22.57c0,1.657,1.344,3,3,3h28.93v6.32h-28.93 c-0.703,0-1.385,0.248-1.926,0.7l-13.328,11.16c-0.676,0.566-1.068,1.401-1.074,2.283c-0.004,0.883,0.379,1.722,1.049,2.296 l13.328,11.41c0.545,0.465,1.236,0.721,1.951,0.721h28.93v24.103c0,1.657,1.344,3,3,3c1.658,0,3-1.343,3-3V86.104h27.211 c1.658,0,3-1.343,3-3v-22.57c0-1.657-1.342-3-3-3H67.858v-6.32H95.069z" style="fill: rgb(255, 217, 64)"></path>
    </g>
</svg>