<svg class="svgicon" id="svg34" preserveAspectRatio="xMidYMid meet" xmlns="http://www.w3.org/2000/svg" viewBox="0 0 128 128">
    <rect x="0" y="0" width="128" height="128" style="fill: rgba(255, 217, 64, 0.15)" rx="50%" ry="50%"></rect>
    <g transform="scale(0.75) translate(21.333333333333332, 21.333333333333332)">
        <path class="st0" d="M121.837,64.2c-2.715-5.044-17.829-7.576-27.435-8.692c-5.524-6.763-14.26-17.214-16.511-18.509 c-3.186-1.834-11.677-2.219-18.239-2.219c-18.096,0-20.322,2.227-21.161,3.065l-0.56,0.555 c-8.324,8.229-13.499,14.135-15.745,17.973c-0.442,0.032-1.122,0.059-2.153,0.059c-0.823,0-1.675-0.016-2.459-0.029 c-0.706-0.013-1.359-0.024-1.899-0.024c-3.77,0-4.755,4.486-5.536,14.542c-0.123,1.583-0.224,3.18-0.306,4.69H6.438 c-1.158,0-1.999,1.073-1.999,2.553v3.85c0,1.479,0.841,2.553,1.999,2.553h3.04c0.057,0.695,0.277,1.377,0.688,1.972 c0.748,1.069,1.974,1.708,3.278,1.708h8.179c0.272,0,0.537-0.036,0.788-0.104h0.875c-0.247-0.961-0.393-1.963-0.393-3 c0-6.661,5.421-12.08,12.084-12.08c6.659,0,12.076,5.419,12.076,12.08c0,1.037-0.146,2.039-0.393,3h4.86 c0.251,0.068,0.516,0.104,0.788,0.104h19.888c0.008,0,0.016,0,0.02,0c0.273,0,0.537-0.036,0.788-0.104h3.281 c-0.247-0.961-0.393-1.963-0.393-3c0-6.661,5.421-12.08,12.084-12.08c6.659,0,12.076,5.419,12.076,12.08 c0,1.037-0.146,2.039-0.393,3h2.44c0.251,0.068,0.516,0.104,0.788,0.104h16.065c2.123,0,3.864-1.662,3.991-3.754 C123.286,81.724,124.609,69.355,121.837,64.2z M46.539,47.034l7.542-0.012l-0.039,10.748H37.616L46.539,47.034z M71.19,47.161 l7.94,10.609H62.457l-0.125-10.692L71.19,47.161z" style="fill: rgb(255, 217, 64)"></path>
        <path class="st0" d="M87.978,77.061c-4.458,0-8.084,3.625-8.084,8.08s3.626,8.079,8.084,8.079c4.453,0,8.076-3.624,8.076-8.079 S92.431,77.061,87.978,77.061z" style="fill: rgb(255, 217, 64)"></path>
        <path class="st0" d="M34.978,77.061c-4.458,0-8.084,3.625-8.084,8.08s3.626,8.079,8.084,8.079c4.453,0,8.076-3.624,8.076-8.079 S39.431,77.061,34.978,77.061z" style="fill: rgb(255, 217, 64)"></path>
    </g>
</svg>