<svg class="svgicon" id="svg150" preserveAspectRatio="xMidYMid meet" xmlns="http://www.w3.org/2000/svg" viewBox="0 0 128 128">
    <rect x="0" y="0" width="128" height="128" style="fill: transparent" rx="50%" ry="50%"></rect>
    <g transform="scale(0.6) translate(42.66666666666667, 42.66666666666667)">
        <path class="st0" d="M112.025,18.083H98.305c-1.766,0-3.256,1.315-3.475,3.068L87.373,81.16h-71.4c-1.932,0-3.5,1.567-3.5,3.5 s1.568,3.5,3.5,3.5h74.492c1.766,0,3.256-1.315,3.473-3.068l7.459-60.008h10.629c1.934,0,3.5-1.567,3.5-3.5 C115.525,19.65,113.959,18.083,112.025,18.083z"></path>
        <path class="st0" d="M29.078,90.923c-5.236,0-9.496,4.261-9.496,9.497s4.26,9.496,9.496,9.496s9.496-4.26,9.496-9.496 S34.314,90.923,29.078,90.923z"></path>
        <path class="st0" d="M80.203,90.923c-5.236,0-9.496,4.261-9.496,9.497s4.26,9.496,9.496,9.496s9.496-4.26,9.496-9.496 S85.439,90.923,80.203,90.923z"></path>
        <polygon class="st0" points="58.705,43.373 58.705,60.438 58.705,71.572 79.375,71.572 79.375,26.653 58.705,26.653 "></polygon>
        <polygon class="st0" points="55.705,61.938 31.939,61.938 22.984,61.938 22.984,71.572 55.705,71.572 "></polygon>
        <rect x="33.439" y="44.873" class="st0" width="22.266" height="14.065"></rect>
    </g>
</svg>