<svg class="svgicon" id="svg149" preserveAspectRatio="xMidYMid meet" xmlns="http://www.w3.org/2000/svg" viewBox="0 0 128 128">
    <rect x="0" y="0" width="128" height="128" style="fill: transparent" rx="50%" ry="50%"></rect>
    <g transform="scale(0.8) translate(15.999999999999996, 15.999999999999996)">
        <circle cx="93.909" cy="83.237" r="2.425"></circle><circle cx="40.146" cy="83.237" r="2.425"></circle>
        <path d="M23.018,44.266l38.033-6.412C45.568,28.082,29.745,38.619,23.018,44.266z"></path>
        <path d="M22.996,70.234h47.25c0.207,0,0.375-0.168,0.375-0.375V41.594l10.435-1.699c0.141-0.023,0.256-0.123,0.298-0.259 s0.004-0.284-0.099-0.382l-2.917-2.792c-0.085-0.082-0.204-0.119-0.322-0.099L16.562,46.781c-0.104,0.018-0.197,0.079-0.254,0.169 c-0.057,0.089-0.073,0.199-0.045,0.301c0,0,1.578,5.677,3.163,11.354c0.792,2.839,1.587,5.678,2.188,7.807 c0.3,1.065,0.552,1.953,0.73,2.574C22.702,70.234,22.702,70.234,22.996,70.234z"></path>
        <path d="M109.457,73.359h-1.619V62.637c0-2.4-1.947-4.347-4.348-4.347h-2.434l-1.779-10.816c0-3.242-2.628-5.87-5.87-5.87H79.224 c-3.241,0-6.358,2.627-6.358,5.87v25.417h-48.82c-1.267,0-2.294,1.025-2.294,2.292v0.47v2.895c0,1.267,1.027,2.293,2.294,2.293 h5.47c-0.174,0.772-0.271,1.573-0.271,2.397c0,6.019,4.882,10.9,10.901,10.9c6.019,0,10.9-4.881,10.9-10.9 c0-0.825-0.097-1.625-0.271-2.397h32.503c-0.173,0.772-0.271,1.573-0.271,2.397c0,6.019,4.882,10.9,10.901,10.9 c6.019,0,10.9-4.881,10.9-10.9c0-0.825-0.097-1.625-0.271-2.397h4.92c1.267,0,2.294-1.026,2.294-2.293v-2.895 C111.751,74.387,110.724,73.359,109.457,73.359z M40.146,89.72c-3.582,0-6.486-2.902-6.486-6.481c0-0.812,0.15-1.625,0.422-2.397 h0.038c0.954-2.396,3.292-4.088,6.026-4.088s5.071,1.693,6.024,4.088h0.038c0.272,0.773,0.422,1.586,0.422,2.397 C46.63,86.818,43.728,89.72,40.146,89.72z M77.224,58.073v-9.865c0-2.516,0.952-3.19,3.467-3.19h11.495 c2.516,0,3.18,0.99,3.377,3.19l1.27,9.934L77.224,58.073z M93.908,89.723c-3.583,0-6.486-2.905-6.486-6.484 c0-0.783,0.143-1.599,0.396-2.397h0.063c0.953-2.395,3.291-4.088,6.026-4.088c2.735,0,5.072,1.694,6.025,4.088h0.063 c0.254,0.798,0.396,1.615,0.396,2.397C100.393,86.818,97.49,89.723,93.908,89.723z"></path>
    </g>
</svg>